<?xml version="1.0" encoding="utf-8"?>
<!-- Generator: Adobe Illustrator 24.3.0, SVG Export Plug-In . SVG Version: 6.00 Build 0)  -->
<svg version="1.1" id="Layer_1" xmlns="http://www.w3.org/2000/svg" xmlns:xlink="http://www.w3.org/1999/xlink" x="0px" y="0px"
	 viewBox="0 0 283.46 283.46" style="enable-background:new 0 0 283.46 283.46;" xml:space="preserve">
<style type="text/css">
	.st0{fill:#FFFFFF;}
</style>
<g>
	<g>
		<path class="st0" d="M142.49,3.1c76.41,0.12,138.58,62.72,138.34,139.3c-0.24,76.33-62.99,138.39-139.6,138.06
			C65.5,280.14,3.45,217.64,3.47,141.72C3.49,65.32,66.02,2.98,142.49,3.1z M126.32,155.86c-9.39-8.6-17.79-16.46-26.38-24.11
			c-8.87-7.9-17.2-8.54-23.28-2.1c-6.21,6.58-5.08,14.88,3.51,22.96c10.92,10.27,21.98,20.39,33.1,30.45
			c10.66,9.64,16.1,9.63,26.63-0.36c21.47-20.37,42.85-40.85,64.17-61.38c8.55-8.24,9.78-16.56,3.78-23.1
			c-6.47-7.05-14.59-6.23-23.99,2.7C164.91,118.91,146.05,137,126.32,155.86z"/>
	</g>
</g>
</svg>
