<?xml version="1.0" encoding="utf-8"?>
<!-- Generator: Adobe Illustrator 24.3.0, SVG Export Plug-In . SVG Version: 6.00 Build 0)  -->
<svg version="1.1" id="Layer_1" xmlns="http://www.w3.org/2000/svg" xmlns:xlink="http://www.w3.org/1999/xlink" x="0px" y="0px"
	 viewBox="0 0 283.46 283.46" style="enable-background:new 0 0 283.46 283.46;" xml:space="preserve">
<style type="text/css">
	.st0{fill:#FFFFFF;}
</style>
<g>
	<path class="st0" d="M142.06,2.47c75.91-0.37,139.95,63.5,139.95,139.56c0,76.86-62.24,139.77-138.93,140.44
		C66.1,283.13,2.46,220.22,2,143C1.55,66.18,64.67,2.84,142.06,2.47z M125.32,142.02c-7.3,6.99-13.02,12.37-18.63,17.86
		c-5.67,5.55-12.23,10.56-16.49,17.06c-2.94,4.49-4.93,11.92-3.27,16.59c2.97,8.36,13.11,8.7,20.59,1.23
		c11.38-11.36,22.23-23.26,33.73-35.38c12.74,12.88,23.4,23.52,33.91,34.32c6.29,6.46,13.43,9.8,20.62,2.61
		c7.19-7.18,3.91-14.39-2.57-20.64c-11.05-10.67-22.03-21.42-33.9-32.98c11.73-11.56,22.2-21.75,32.52-32.09
		c8.76-8.78,10.24-17.01,3.67-22.35c-8.56-6.96-15.27-2.4-21.53,4.26c-10.22,10.87-20.63,21.56-31.86,33.27
		c-12.24-12.66-22.76-23.44-33.15-34.33c-6.2-6.5-13.31-9.98-20.61-2.91c-7.29,7.07-4.28,14.35,2.31,20.59
		C101.83,119.72,112.99,130.32,125.32,142.02z"/>
</g>
</svg>
