<?xml version="1.0" encoding="utf-8"?>
<!-- Generator: Adobe Illustrator 24.3.0, SVG Export Plug-In . SVG Version: 6.00 Build 0)  -->
<svg version="1.1" id="Layer_1" xmlns="http://www.w3.org/2000/svg" xmlns:xlink="http://www.w3.org/1999/xlink" x="0px" y="0px"
	 viewBox="0 0 283.46 283.46" style="enable-background:new 0 0 283.46 283.46;" xml:space="preserve">
<g>
	<path d="M130.16,258.42c-3.26,0-4.49,0.25-5.58-0.04c-12.48-3.36-27.09-3.87-36.85-11c-11.23-8.2-0.18-23.06-2.04-34.93
		c-0.55-3.5,1.73-7.66,0.65-10.8c-2.21-6.37-4.4-14.34-9.31-17.68c-3.95-2.68-14.24-1.75-17.45,1.62
		c-4.09,4.31-5.74,12.88-5.09,19.28c0.92,8.99,4.92,17.66,7.6,26.47c-1.1,0.82-2.21,1.64-3.31,2.46
		c-7.23-7.95-15.35-15.31-21.26-24.15c-2.4-3.59-0.96-10.63,0.36-15.67c5.31-20.2,1.46-26-20.37-27.37
		c-5.69-24.66-3.64-49.7,0.64-74.33c9.19-52.87,37.61-79.46,92.11-83.47c26.83-1.97,54.55-1.35,81,3.15
		c40.5,6.89,64.87,33.11,72.1,74c4.67,26.43,7.21,52.99,2.22,80.1c-5.08,0.82-10.13,0.72-14.37,2.51c-7.75,3.28-10.15,9.6-8.23,18
		c1.66,7.26,5.76,16.66,2.85,21.69c-5.79,10.02-15.66,17.68-23.84,26.31c-0.89-0.63-1.77-1.26-2.66-1.89
		c2.9-9.57,6.98-18.99,8.25-28.78c0.77-5.93-1.01-14.35-5-18.08c-3.62-3.39-13.14-4.44-17.55-2c-4.81,2.67-9.15,10.42-9.43,16.17
		c-0.62,12.88,1.07,25.92,2.48,38.82c0.71,6.46-1.29,9.94-7.51,11.55c-11.72,3.05-23.37,6.33-38.05,10.34
		c2.53-14.93,4.62-27.4,6.77-39.86c0.9-5.2,3.65-10.81,2.47-15.45c-1.84-7.27-4.65-16.36-10.15-20.02
		c-5.04-3.36-16.08-3.22-21.02,0.27c-5.39,3.81-9.88,13.47-9.37,20.17C122.54,223.04,126.83,240.03,130.16,258.42z M140.73,171.9
		c19.9,0,39.82,0.34,59.71-0.08c29.58-0.62,51.76-23.24,53.16-52.71c1.28-26.96-8.77-50.98-19.58-74.45
		c-7.11-15.44-21.73-23.22-38.65-23.53c-34.92-0.63-69.87-0.61-104.79-0.03c-17.46,0.29-31.8,8.56-39.46,24.33
		c-7.94,16.34-16,33.21-19.99,50.77c-11.68,51.46,23.14,78.33,58.44,75.93C106.54,170.97,123.67,171.93,140.73,171.9z"/>
	<path d="M78.09,255.3c42.95,18.71,83.9,18.32,125.34,0.69C194.44,284.91,93.57,287.22,78.09,255.3z"/>
	<path d="M139.79,255.57c-3.1-16.58-6.3-33.13-9.24-49.74c-1.45-8.2,2.03-13.78,10.54-14.13c7.88-0.32,12.38,4.94,11.24,12.42
		c-2.63,17.28-6.28,34.41-9.51,51.6C141.81,255.67,140.8,255.62,139.79,255.57z"/>
	<path d="M207.43,229.67c-0.84-9.58-2.06-19.14-2.27-28.73c-0.07-2.97,2.02-6.7,4.31-8.72c1.26-1.1,6.18-0.24,7.37,1.32
		c1.58,2.08,2.08,5.95,1.37,8.61c-2.54,9.51-5.79,18.83-8.77,28.22C208.77,230.14,208.1,229.91,207.43,229.67z"/>
	<path d="M72.04,229.51c-2.86-9.15-6.34-18.17-8.24-27.52c-0.61-3.02,2.9-6.87,4.53-10.34c2.85,2.94,8,5.78,8.13,8.83
		c0.4,9.52-1.1,19.13-1.86,28.7C73.75,229.28,72.89,229.4,72.04,229.51z"/>
	<path d="M230.62,94.55c-11.62-24.3-25.05-33.18-42.79-29.11c-17.94,4.12-26.43,17.16-27.18,41.45c-4.37-1.13-8.88-2.29-16.6-4.29
		c11.25,21.44,30.73,23.72,46.83,29.55c17.05,6.17,34.21-13.77,50.12-33.66c12.19,28.43-7.86,62.54-38.64,63.34
		c-40.58,1.05-81.23,0.99-121.81,0.02c-30.43-0.73-48.34-30.26-39.52-62.71c15.76,13.42,25.76,38.6,51.53,32.66
		c16.07-3.7,34.44-8.52,42.89-28.17c-4.43,1.11-8.86,2.21-13.15,3.28c-1.83-25.48-10.08-37.89-28.06-41.63
		c-17.17-3.57-29.13,4.5-42.12,28.43C42.04,61.81,64.11,30.74,97.07,30.61c28.84-0.11,57.67-0.03,86.51-0.02
		C222.12,30.6,241.28,55.94,230.62,94.55z M103.82,40.47c0-0.04,0-0.08,0-0.12c-6.08,0-12.19-0.33-18.23,0.16
		c-2.43,0.2-4.71,2.19-7.06,3.37c1.35,2.2,2.18,5.35,4.14,6.44c10.98,6.05,21.94,12.37,33.56,16.91c4.27,1.67,11.62,0.29,15.22-2.6
		c3.15-2.54,5.21-10.02,3.75-13.75c-1.71-4.36-7.3-8.64-12.05-9.99C117.16,39.18,110.31,40.47,103.82,40.47z M178.67,40.39
		c0,0.03,0,0.07,0,0.1c-6.48,0-13.03-0.58-19.44,0.14c-8.99,1-14.55,9.26-12.54,17.4c2.04,8.25,10.8,13.4,18.91,9.82
		c11.83-5.22,23.24-11.41,34.59-17.63c1.93-1.06,2.65-4.31,3.93-6.54c-2-1.1-3.96-3-6.02-3.13
		C191.66,40.13,185.16,40.39,178.67,40.39z M111.09,138.1c-0.2,1.51-0.4,3.01-0.61,4.52c3.49,0,8.33,1.5,10.26-0.24
		c14.32-12.84,27.75-12.05,41.84,0.36c1.68,1.48,6.53-0.64,12.72-1.47C144.95,116.89,139.08,116.85,111.09,138.1z M176.05,149.63
		c21.68,10.54,37.99,5.27,60.52-18.46c-2.14-1.98-4.27-3.94-6.61-6.09c-13.81,12.12-26.2,25.47-46.65,18.62
		C181.86,143.22,178.91,147.2,176.05,149.63z M46.74,131.91c23.17,23.39,39.3,28.44,60.02,17.31c-3.05-2.26-6.05-5.99-7.68-5.47
		c-17.55,5.65-29.75-3.29-41.21-14.34C52.48,124.22,49.09,125.16,46.74,131.91z M145.17,74.08c-15.22,2.17-5.95,12.61-8.55,18.98
		C147.18,93.02,147.18,93.02,145.17,74.08z"/>
	<path d="M87.9,123.1c-13.49,0.07-24.71-11.26-24.5-24.74c0.2-12.99,11.09-23.76,24.12-23.86c13.49-0.1,24.72,11.24,24.49,24.72
		C111.79,112.23,100.87,123.04,87.9,123.1z M107.12,99.28c0.26-10.47-8.18-19.46-18.65-19.87c-10.96-0.43-20.26,8.57-20.19,19.55
		c0.06,10.49,8.74,19.18,19.25,19.27C98,118.32,106.86,109.75,107.12,99.28z"/>
	<path d="M219.31,98.37c0.29,12.96-10.2,24.13-23.24,24.72c-13.44,0.61-25.1-10.33-25.38-23.81c-0.27-12.99,10.25-24.19,23.22-24.75
		C207.35,73.96,219.01,84.9,219.31,98.37z M195.3,118.22c10.49-0.21,19.11-8.98,19.12-19.45c0.01-10.91-9.46-19.94-20.35-19.4
		c-10.44,0.51-18.85,9.62-18.5,20.05C175.92,109.9,184.87,118.43,195.3,118.22z"/>
	<path d="M101.56,98.66c-6.57,4.53-10.38,9.16-14.14,9.11c-3.14-0.04-6.21-5.55-9.31-8.64c3.29-3.3,6.18-8.46,10.02-9.3
		C90.99,89.21,95.07,94.15,101.56,98.66z"/>
	<path d="M208.79,99.83c-6.94,3.95-11.14,8.25-14.89,7.89c-3.11-0.3-8.58-7.09-7.84-9.25c1.29-3.78,6.29-8.09,10.2-8.58
		C199.17,89.53,202.8,94.82,208.79,99.83z"/>
</g>
</svg>
