<?xml version="1.0" encoding="utf-8"?>
<!-- Generator: Adobe Illustrator 24.3.0, SVG Export Plug-In . SVG Version: 6.00 Build 0)  -->
<svg version="1.1" id="Layer_1" xmlns="http://www.w3.org/2000/svg" xmlns:xlink="http://www.w3.org/1999/xlink" x="0px" y="0px"
	 viewBox="0 0 283.46 283.46" style="enable-background:new 0 0 283.46 283.46;" xml:space="preserve">
<g>
	<g>
		<path d="M136.65,280.11c-3.58,0-7.16,0-10.73,0c-1.28-0.6-2.5-1.47-3.84-1.74c-33.26-6.66-66.59-13.01-99.76-20.08
			c-5.86-1.25-11.1-5.41-16.62-8.23c0-79.43,0-158.87,0-238.3C10.73,9.61,15.75,5.64,20.8,5.6c59-0.43,118.01-0.27,177.02-0.29
			c9.21,0,13.96,4.39,13.96,13.7c0,21.46-0.04,42.91,0.02,64.37c0.02,7.56-3.29,12.91-10.94,13.23c-8.39,0.34-11.99-5.4-12.07-13.24
			c-0.16-14.3-0.07-28.61-0.08-42.91c0-3.77,0-7.53,0-11.22c-29.12,0-56.57,0-84.03,0c7.18,3.79,14.57,6.09,21.98,8.33
			c15.33,4.63,16.42,6.01,16.42,21.59c0.01,54.36,0,108.72,0,163.08c0,3.79,0,7.57,0,11.46c15.9,0,30.34,0,45.63,0
			c0-17.92,0-35.05,0-52.18c0-8.26,1.83-15.63,12-15.38c9.44,0.23,11.15,7.12,11.1,15.08c-0.12,18.6-0.03,37.19-0.04,55.79
			c-0.01,18.33-1.73,20.02-20.4,20.04c-15.92,0.01-31.83,0-44.85,0C142.53,266.41,139.59,273.26,136.65,280.11z"/>
		<path d="M238.21,142.72c-18.86,0-37.72-0.08-56.58,0.04c-7.91,0.05-14.83-1.61-15.12-11.02c-0.32-10.13,6.97-12.08,15.24-12.09
			c18.78-0.01,37.56,0,56.35,0c0.66-1,1.32-1.99,1.98-2.99c-3.94-3.34-8.05-6.5-11.79-10.05c-5.72-5.42-7.37-11.75-1.27-17.71
			c5.65-5.52,11.73-4.02,16.99,1.19c10.65,10.55,21.22,21.17,31.8,31.79c6.17,6.19,6.23,12.48,0.05,18.68
			c-10.83,10.87-21.65,21.75-32.59,32.51c-5.06,4.97-10.96,5.76-16.19,0.73c-5.62-5.4-4.98-11.7,0.39-16.96
			c4.02-3.94,8.78-7.12,13.21-10.63C239.86,145.04,239.03,143.88,238.21,142.72z"/>
	</g>
</g>
</svg>
