<?xml version="1.0" encoding="utf-8"?>
<!-- Generator: Adobe Illustrator 24.3.0, SVG Export Plug-In . SVG Version: 6.00 Build 0)  -->
<svg version="1.1" id="Layer_1" xmlns="http://www.w3.org/2000/svg" xmlns:xlink="http://www.w3.org/1999/xlink" x="0px" y="0px"
	 viewBox="0 0 283.46 283.46" style="enable-background:new 0 0 283.46 283.46;" xml:space="preserve">
<g>
	<g>
		<path d="M6.09,134.93c24.85-30.9,53.69-56.82,90.88-72.13c36.1-14.86,71.15-11.08,105.06,6.91c27.51,14.6,50.4,34.89,70.33,58.65
			c6.14,7.32,8.04,15.76,1.81,23.24c-28.96,34.74-62.21,63.85-107.71,74.48c-35.96,8.41-68.38-1.9-98.55-21.35
			c-23.92-15.42-44.07-34.96-61.81-57.08C6.09,143.42,6.09,139.18,6.09,134.93z M143.27,82.84c-31.91-1.06-59.02,24.9-59.9,57.36
			c-0.87,31.91,25.29,58.97,57.67,59.68c31.5,0.68,58.02-24.76,59.35-56.92C201.71,111.18,175.81,83.92,143.27,82.84z"/>
		<path d="M141.76,183.23c-22.74-0.09-41.88-19.35-41.78-42.04c0.09-22.79,19.27-41.85,42.03-41.77
			c22.81,0.09,41.88,19.26,41.79,42.01C183.7,164.23,164.5,183.32,141.76,183.23z"/>
	</g>
</g>
</svg>
