<?xml version="1.0" encoding="utf-8"?>
<!-- Generator: Adobe Illustrator 24.3.0, SVG Export Plug-In . SVG Version: 6.00 Build 0)  -->
<svg version="1.1" id="Layer_1" xmlns="http://www.w3.org/2000/svg" xmlns:xlink="http://www.w3.org/1999/xlink" x="0px" y="0px"
	 viewBox="0 0 283.46 283.46" style="enable-background:new 0 0 283.46 283.46;" xml:space="preserve">
<g>
	<g>
		<path d="M241.3,234.72c0,6.78,0.55,12.95-0.12,18.98c-1.12,10.1-8.52,12.94-16.4,6.71c-0.91-0.72-1.86-1.49-2.48-2.43
			c-14.48-21.98-35.41-27.21-60.13-23.98c-8.37,1.1-17.01,0.38-25.52,0.11c-18.69-0.59-31.45-12.9-31.76-31.44
			c-0.41-24.37-0.37-48.76-0.02-73.13c0.26-18.17,11.97-31.21,30.33-31.6c37.53-0.79,75.09-0.78,112.62-0.02
			c18.37,0.37,30.06,12.81,30.59,31.44c0.69,24.36,0.73,48.77-0.01,73.12C277.77,222.6,266.01,232.64,241.3,234.72z M179.82,191.27
			c-6.33,1.13-11.35,1.51-15.97,3.06c-2.36,0.79-4.01,3.68-5.98,5.62c2.3,2.07,5.21,6.33,6.82,5.88c17.98-4.97,35.7-5.55,53.7-0.01
			c1.69,0.52,4.79-3.52,7.23-5.45c-2.31-2.1-4.29-5.07-7.01-6.11c-4.42-1.69-9.31-2.12-13.25-2.93c4.8-11.1,8.91-20.96,13.37-30.65
			c0.8-1.74,3.16-2.69,4.51-4.25c1.82-2.11,3.35-4.47,5-6.73c-2.54-1.86-4.94-5.05-7.65-5.33c-7.18-0.75-14.5-0.26-19.54-0.26
			c-3.49-7.27-5.78-17.05-8.69-17.24c-11.98-0.78-3.27,11.91-9.59,17.18c-4.81,0-10.74-0.8-16.31,0.26
			c-4.15,0.79-7.85,3.99-11.74,6.12c3.9,2.13,7.69,5.86,11.71,6.11c12.92,0.79,25.92,0.29,42.5,0.29
			c-6.27,10.82-10.87,18.77-16.71,28.85c-5.1-7.03-8.02-12.03-11.96-16.04c-1.93-1.97-5.75-2.09-8.71-3.05
			c-0.54,3.07-2.36,6.65-1.36,9.09C172.19,180.6,175.72,184.87,179.82,191.27z"/>
		<path d="M179.2,83.91c-23.25,1.58-45.27,3.07-69.98,4.75c-1.98-4.35-5.29-12.46-9.4-20.15c-1.63-3.06-4.68-6.28-7.76-7.24
			c-1.48-0.47-5.45,3.7-6.77,6.48C75.75,88.03,66.37,108.39,57.56,129c-1.27,2.97,0.77,7.36,1.28,11.1
			c3.16-1.89,6.61-3.43,9.36-5.79c1.61-1.38,2.42-3.97,3.02-6.18c3.06-11.12,9.89-14.75,21.29-10.7c0,14.03,0.06,28.23-0.07,42.43
			c-0.02,1.77-0.5,4.15-1.69,5.2c-9.71,8.56-19.42,17.16-29.63,25.1c-3.27,2.54-9.32,5.42-11.84,4.04
			c-3.39-1.87-5.48-7.51-6.49-11.9c-1.08-4.71-0.24-9.86-0.24-15.25c-3.22-0.48-5.44-0.77-7.64-1.14
			c-18.98-3.14-29.04-13.81-29.44-32.83c-0.49-23.6-0.55-47.23,0.01-70.83c0.49-20.77,13.17-32.57,34.22-32.67
			c34.85-0.16,69.69-0.14,104.54-0.01c22.76,0.08,34.77,12.38,34.97,35.37C179.24,71.12,179.2,77.31,179.2,83.91z"/>
		<path d="M92.3,81.39c3.76,8.82,6.25,14.64,9.26,21.71c-6.52,0-11.59,0-18.37,0C85.99,96.43,88.66,90.07,92.3,81.39z"/>
	</g>
</g>
</svg>
