<?xml version="1.0" encoding="utf-8"?>
<!-- Generator: Adobe Illustrator 24.3.0, SVG Export Plug-In . SVG Version: 6.00 Build 0)  -->
<svg version="1.1" id="Layer_1" xmlns="http://www.w3.org/2000/svg" xmlns:xlink="http://www.w3.org/1999/xlink" x="0px" y="0px"
	 viewBox="0 0 283.46 283.46" style="enable-background:new 0 0 283.46 283.46;" xml:space="preserve">
<g>
	<g>
		<path d="M68.25,280.46c-15.87-5.47-30.9-12.94-34.4-30.97c-6.23-32.01-2.24-63.05,16.85-90.21c14.2-20.21,36.86-23.67,57.39-10.66
			c24.31,15.39,48.38,15.57,72.75,0.14c20.97-13.28,43.96-9.46,58.15,11.1c18.16,26.33,21.96,56.41,17.12,87.29
			c-2.97,18.93-18.09,27.43-34.7,33.32C170.35,280.46,119.3,280.46,68.25,280.46z"/>
		<path d="M142.75,8.46c35.9-0.06,65.62,29.5,65.68,65.34c0.06,35.83-29.5,65.47-65.45,65.62c-35.72,0.15-65.56-29.53-65.72-65.38
			C77.1,38.36,106.89,8.53,142.75,8.46z"/>
	</g>
</g>
</svg>
