<?xml version="1.0" encoding="utf-8"?>
<!-- Generator: Adobe Illustrator 24.3.0, SVG Export Plug-In . SVG Version: 6.00 Build 0)  -->
<svg version="1.1" id="Layer_1" xmlns="http://www.w3.org/2000/svg" xmlns:xlink="http://www.w3.org/1999/xlink" x="0px" y="0px"
	 viewBox="0 0 283.46 283.46" style="enable-background:new 0 0 283.46 283.46;" xml:space="preserve">
<g>
	<path d="M142.06,271.19c-30.56,0-61.12,0.12-91.68-0.03c-38.91-0.2-56.94-30.39-38.45-64.84C42.78,148.88,74,91.63,105.05,34.3
		c7.96-14.69,19.5-23.87,36.8-23.99c17.76-0.12,29.56,9.18,37.73,24.27C210.6,91.93,241,149.64,273.02,206.41
		c18.45,32.71-3.49,66.9-39.3,65.09C203.24,269.97,172.62,271.19,142.06,271.19z M126.1,132.01c0.02,0,0.03,0,0.05,0
		c0,13.34-0.34,26.69,0.1,40.02c0.37,11.13,7.04,18.02,16.14,17.91c9.11-0.11,15.68-6.99,15.83-18.23
		c0.36-25.6,0.35-51.21,0.02-76.8c-0.15-11.42-6.42-18.12-15.64-18.36c-9.57-0.25-16.06,6.75-16.42,18.69
		C125.82,107.48,126.1,119.75,126.1,132.01z M157.98,222.19c-0.19-8.74-7.26-15.68-15.9-15.59c-8.64,0.09-15.55,7.12-15.6,15.88
		c-0.05,9.36,7.1,16.3,16.42,15.94C151.73,238.08,158.17,231.14,157.98,222.19z"/>
</g>
</svg>
